<?xml version="1.0" standalone="no"?>
<!DOCTYPE svg PUBLIC "-//W3C//DTD SVG 20010904//EN"
 "http://www.w3.org/TR/2001/REC-SVG-20010904/DTD/svg10.dtd">
<svg version="1.0" xmlns="http://www.w3.org/2000/svg"
 width="600.000000pt" height="800.000000pt" viewBox="0 0 600.000000 800.000000"
 preserveAspectRatio="xMidYMid meet">
<metadata>
Created by potrace 1.14, written by Peter Selinger 2001-2017
</metadata>
<g transform="translate(0.000000,800.000000) scale(0.100000,-0.100000)"
fill="#000000" stroke="none">
<path d="M2924 7416 c-33 -8 -98 -30 -145 -49 -236 -97 -436 -159 -720 -221
-183 -40 -310 -81 -411 -132 -200 -101 -383 -264 -504 -450 -62 -94 -90 -154
-144 -304 -21 -58 -50 -133 -64 -168 -68 -158 -78 -250 -101 -907 -9 -247 -18
-456 -20 -462 -3 -8 -22 -13 -48 -13 -24 0 -49 -6 -56 -12 -10 -11 -15 -9 -26
6 -13 18 -16 17 -54 -13 -56 -45 -81 -79 -81 -111 0 -15 -7 -30 -14 -33 -8 -3
-18 -22 -22 -43 -5 -27 -15 -41 -41 -56 -18 -11 -41 -34 -49 -50 -15 -29 -15
-31 10 -57 21 -21 26 -36 25 -72 -1 -24 -3 -35 -6 -24 -8 31 -19 38 -48 31
-23 -6 -26 -11 -21 -32 5 -19 2 -26 -18 -33 -25 -10 -49 -61 -40 -86 3 -7 17
-21 30 -30 26 -17 32 -45 10 -45 -8 0 -16 -10 -18 -22 -2 -15 -9 -22 -21 -22
-21 2 -21 6 4 -61 22 -58 49 -85 86 -85 31 0 51 -46 29 -68 -24 -24 -73 -19
-104 11 -16 15 -32 27 -37 27 -5 0 -16 7 -26 16 -10 9 -26 14 -34 10 -15 -5
-14 -10 4 -40 27 -43 26 -50 -3 -64 -39 -18 -96 -73 -96 -93 0 -16 8 -13 51
21 28 22 55 40 59 40 12 0 80 -73 80 -86 0 -24 -14 -22 -56 6 -44 31 -64 37
-64 20 0 -5 7 -10 16 -10 20 0 84 -70 84 -92 0 -24 -36 -23 -78 2 -43 26 -45
25 -27 -10 l16 -30 -31 0 c-42 0 -47 -23 -16 -70 40 -60 55 -52 29 17 -3 7 12
14 41 18 67 10 76 4 76 -56 0 -28 7 -76 16 -106 9 -31 14 -73 11 -94 -3 -23 0
-45 8 -55 11 -16 13 -13 20 24 4 23 10 40 15 37 11 -7 21 -70 21 -122 -1 -23
3 -45 9 -48 5 -3 10 -14 10 -24 0 -11 12 -24 30 -31 29 -12 30 -15 25 -61 -4
-45 -3 -49 18 -49 40 0 97 -21 124 -45 16 -13 24 -25 18 -25 -5 0 -16 -4 -24
-9 -11 -7 -8 -16 14 -45 15 -20 33 -36 40 -36 7 0 20 -11 29 -24 8 -14 23 -27
33 -30 10 -3 26 -20 36 -37 19 -33 29 -34 93 -8 17 6 42 9 57 5 29 -7 37 -26
11 -26 -8 0 -24 -5 -35 -10 -15 -9 -17 -15 -9 -30 8 -15 6 -21 -7 -30 -10 -6
-13 -13 -8 -16 61 -28 96 -58 137 -118 51 -75 69 -91 100 -83 15 4 23 -2 34
-29 8 -19 18 -34 23 -34 14 0 33 28 27 39 -4 5 1 14 10 19 12 7 27 3 52 -14
69 -47 162 -55 204 -18 18 17 20 16 51 -14 26 -27 34 -47 49 -119 9 -49 17
-114 17 -145 1 -99 22 -210 50 -273 30 -64 85 -135 106 -135 7 0 23 -25 35
-56 13 -30 40 -81 60 -112 32 -50 308 -335 444 -460 42 -39 66 -71 31 -42 -34
29 -21 0 30 -64 38 -47 55 -78 55 -97 0 -34 4 -35 37 -9 32 25 55 25 77 1 16
-18 133 -71 155 -71 5 0 13 12 18 27 l9 26 22 -31 c13 -17 43 -45 67 -61 51
-34 68 -32 123 14 18 15 36 24 40 20 4 -4 -6 -18 -23 -32 l-30 -25 116 4 c97
4 121 8 151 26 20 12 39 29 42 38 5 12 10 13 27 3 44 -23 121 -6 200 43 70 44
74 45 87 27 18 -27 39 -24 79 11 18 17 37 30 42 30 10 0 29 45 33 79 2 18 21
34 73 63 111 63 203 139 344 284 119 124 133 142 149 195 12 42 22 59 34 59
31 0 86 60 120 128 l32 67 -3 216 -3 216 53 98 c30 53 65 105 79 115 14 10 40
39 59 64 30 40 38 45 66 41 17 -2 43 -9 57 -16 23 -10 32 -9 63 10 20 11 42
21 48 21 28 0 87 22 120 44 30 21 41 23 73 16 44 -10 84 -5 137 17 42 18 46
28 17 43 -11 6 -20 14 -20 18 0 4 32 16 70 26 39 10 70 21 70 26 0 4 -17 11
-37 15 -55 10 -111 35 -117 51 -3 9 6 26 22 40 l27 26 10 -40 c5 -23 13 -44
17 -47 3 -4 42 -1 84 6 80 13 80 16 1 33 -43 10 -67 40 -67 85 0 48 8 71 25
71 7 0 39 -13 71 -30 32 -16 60 -30 61 -30 0 0 -1 8 -3 18 -3 9 2 26 10 37 16
20 16 19 46 -12 16 -18 31 -33 34 -33 2 0 7 27 10 61 10 89 14 95 42 68 13
-12 27 -19 30 -16 4 4 10 43 14 87 8 88 14 99 62 114 29 10 34 17 45 65 6 30
9 59 6 65 -4 5 -26 -13 -50 -40 -51 -57 -51 -44 0 71 36 82 54 106 73 98 11
-4 14 13 14 96 0 99 -4 113 -28 89 -21 -21 -15 66 7 94 16 19 19 40 19 108 -1
47 -5 91 -11 98 -5 7 -7 37 -3 70 16 147 19 252 6 267 -20 25 -29 17 -32 -27
-2 -29 -8 -43 -17 -43 -19 0 -40 64 -52 159 -5 43 -19 101 -29 130 -25 64 -25
62 8 74 27 10 27 10 -10 11 -30 1 -37 5 -40 24 -2 17 -10 22 -33 22 -35 1 -75
13 -75 23 0 4 -17 25 -37 46 -54 56 -104 76 -191 76 -93 0 -128 17 -141 68 -5
20 -17 147 -25 282 -37 564 -41 592 -118 895 -67 265 -181 576 -280 767 -71
137 -179 234 -327 294 -33 13 -178 60 -323 103 -145 43 -357 116 -473 161
-115 46 -241 92 -280 102 -92 25 -251 32 -331 14z m520 -917 c3 -17 6 -47 6
-65 0 -34 1 -34 45 -34 32 0 45 -4 45 -14 0 -8 3 -21 6 -30 5 -13 -2 -16 -40
-16 -30 0 -46 -4 -46 -12 0 -7 9 -87 20 -177 17 -153 20 -165 46 -192 25 -26
30 -28 44 -14 12 12 14 35 13 103 -1 48 3 134 10 192 l12 105 35 11 c83 26 82
27 147 -27 l61 -51 7 -188 c4 -104 4 -194 0 -200 -3 -6 -33 -24 -65 -40 l-58
-29 -73 67 c-49 45 -74 62 -77 53 -3 -8 -20 -31 -39 -52 l-35 -39 -59 41 -58
41 6 43 c10 79 -24 381 -42 363 -2 -2 4 -84 15 -182 12 -108 16 -185 10 -195
-5 -9 -31 -38 -59 -65 l-51 -50 -35 17 c-46 22 -45 22 -45 -14 0 -48 20 -115
41 -138 10 -11 19 -22 19 -25 0 -11 -58 16 -83 40 l-27 25 -29 -20 c-38 -28
-43 -26 -25 7 16 30 19 118 5 154 -5 13 -22 31 -39 40 l-30 18 -37 -41 -37
-41 -24 23 c-35 33 -42 68 -48 256 -3 95 -10 181 -15 192 -18 33 -40 33 -71
-2 l-29 -32 -1 -147 c0 -113 4 -157 16 -188 16 -40 16 -40 -16 -90 -18 -28
-37 -49 -43 -47 -6 2 -24 19 -40 39 -25 32 -27 39 -16 59 18 34 4 354 -16 386
-21 31 -32 29 -67 -9 l-29 -33 3 -165 c3 -136 6 -169 21 -191 17 -25 16 -26
-21 -62 l-38 -37 -37 38 c-37 38 -37 38 -22 70 14 27 15 55 8 196 -5 91 -12
168 -15 172 -22 21 -28 -19 -28 -179 -1 -120 -5 -179 -13 -195 -13 -23 -123
-102 -142 -102 -5 0 -47 17 -92 37 -63 29 -81 42 -75 53 4 8 7 71 8 140 l1
126 49 68 c27 38 58 80 69 93 l21 25 88 -17 89 -16 31 30 c29 28 33 29 57 16
15 -8 30 -27 33 -41 l7 -27 62 61 62 62 38 -31 c20 -17 37 -39 37 -50 0 -19
15 -27 22 -11 2 4 25 25 51 46 l48 39 39 -38 c22 -21 41 -37 43 -34 2 2 11 15
20 29 22 31 22 13 1 -30 -15 -29 -16 -53 -7 -206 5 -96 12 -176 14 -179 3 -3
29 2 57 10 l52 16 -5 52 c-2 29 -7 103 -10 166 -6 119 -15 146 -46 136 -30
-10 -22 8 20 49 33 32 42 36 59 27 19 -10 52 -68 52 -92 0 -7 22 9 50 36 l50
49 28 -27 c15 -15 31 -27 34 -27 4 0 28 38 55 85 26 46 51 85 54 85 4 0 9 -14
13 -31z m-1480 -118 c44 -9 81 -22 83 -27 5 -15 -65 -84 -85 -84 -9 1 -42 12
-72 25 l-55 23 -8 -71 c-4 -40 -6 -173 -5 -297 l3 -225 35 3 c19 2 57 14 85
27 27 13 50 23 52 22 1 -2 -21 -27 -50 -56 -66 -68 -116 -94 -183 -93 -142 1
-254 128 -271 307 -11 124 35 245 133 343 73 73 105 84 43 15 -65 -74 -93
-143 -97 -240 -6 -124 38 -239 69 -181 10 19 26 195 28 321 1 36 163 207 195
206 12 0 57 -8 100 -18z m2016 -103 c11 -18 20 -43 20 -55 0 -13 3 -23 7 -23
4 0 34 21 66 47 l60 47 33 -39 c31 -38 33 -39 52 -22 30 27 32 20 11 -28 -18
-42 -20 -58 -13 -193 9 -176 13 -195 44 -202 24 -6 24 -6 -18 -50 l-42 -45
-25 28 c-33 38 -45 86 -46 197 -1 150 -12 236 -34 260 l-19 20 -33 -32 -33
-32 0 -138 c0 -102 4 -148 15 -175 16 -37 16 -37 -18 -71 l-34 -34 -41 43
c-36 40 -39 45 -26 63 10 15 14 55 13 156 -1 184 -7 224 -38 228 -23 4 -22 5
15 43 21 21 44 39 51 39 7 0 22 -15 33 -32z m-477 -1201 c222 -38 387 -79 520
-127 107 -40 258 -102 254 -106 -1 -2 -52 13 -111 32 -224 71 -521 135 -788
170 -166 22 -628 30 -795 15 -452 -42 -904 -166 -1328 -366 -65 -30 -120 -54
-122 -51 -7 7 274 154 379 199 373 159 607 213 1138 262 99 9 244 13 400 11
228 -3 259 -6 453 -39z m-434 -494 c0 -5 -29 -64 -63 -133 l-64 -125 -61 129
c-34 71 -61 130 -61 132 0 2 56 4 125 4 69 0 125 -3 124 -7z m171 3 c0 -2 -49
-45 -110 -95 -66 -55 -110 -85 -110 -76 0 9 18 51 40 95 l40 80 70 0 c39 0 70
-2 70 -4z m419 -37 c256 -36 579 -110 781 -181 84 -29 96 -36 105 -63 6 -17
20 -46 33 -66 14 -24 22 -52 22 -81 0 -25 3 -66 6 -92 7 -46 7 -46 40 -40 31
6 33 4 43 -33 34 -127 38 -198 30 -479 -5 -154 -13 -349 -18 -435 -4 -86 -6
-190 -4 -230 4 -59 0 -91 -21 -163 -52 -175 -140 -296 -244 -335 -87 -31 -135
-71 -167 -136 -27 -54 -28 -64 -36 -283 -12 -298 -25 -442 -43 -487 -22 -52
-301 -327 -409 -403 -48 -34 -89 -62 -92 -62 -11 0 -3 21 30 80 20 35 34 64
33 65 -2 2 -46 -28 -98 -66 -52 -38 -138 -89 -189 -114 l-95 -46 -17 22 -16
22 -38 -42 c-27 -29 -41 -38 -49 -31 -9 6 -20 4 -36 -7 -22 -16 -24 -15 -38 5
-19 29 -34 28 -84 -8 -42 -30 -76 -38 -94 -20 -5 5 -27 13 -49 18 -30 6 -41
13 -43 29 -5 34 -28 35 -113 2 -96 -37 -120 -36 -131 8 -10 40 -21 42 -37 7
l-12 -27 -29 28 c-18 18 -35 25 -45 21 -11 -4 -31 6 -56 27 -21 19 -76 54
-120 78 -45 24 -112 72 -150 107 -67 62 -361 429 -392 488 -11 22 -16 81 -19
254 -4 200 -7 231 -26 280 -26 67 -79 121 -147 151 -27 12 -77 45 -110 74 -33
28 -72 60 -87 69 -40 26 -134 146 -140 180 -3 16 -2 43 3 60 11 38 -6 129 -27
146 -9 8 -14 30 -13 59 0 35 2 41 9 26 5 -11 9 -32 9 -47 1 -42 21 -33 22 10
1 20 0 42 -1 47 -2 6 -11 87 -21 180 -25 232 -33 262 -86 344 -40 63 -46 82
-55 154 -10 88 -4 251 12 292 8 21 13 24 27 16 16 -8 17 -31 18 -223 l0 -215
27 -39 c29 -42 46 -104 56 -211 7 -67 7 -68 35 -65 21 3 29 -2 36 -20 6 -13
10 -16 10 -8 1 9 9 3 21 -15 11 -16 18 -36 15 -42 -2 -7 18 -34 45 -59 45 -42
50 -51 50 -91 0 -49 28 -87 74 -99 17 -4 28 -15 33 -33 14 -59 57 -91 122 -91
19 0 32 -9 44 -29 24 -41 69 -57 120 -44 36 10 44 9 76 -13 45 -31 87 -30 132
0 24 17 40 21 50 15 8 -5 34 -9 58 -9 39 0 49 5 82 40 32 33 45 40 77 40 49 0
86 28 102 75 9 28 23 41 61 60 56 29 69 48 69 104 0 33 5 43 31 62 17 12 40
41 50 64 22 50 166 295 206 350 22 31 35 40 58 40 26 0 39 -13 100 -92 38 -50
104 -127 145 -171 103 -109 190 -214 212 -256 10 -19 31 -42 47 -52 15 -9 38
-36 50 -60 13 -27 27 -44 38 -44 10 0 36 -11 57 -24 21 -13 47 -21 57 -19 11
3 33 -11 62 -41 46 -48 77 -57 129 -37 18 7 33 3 63 -15 50 -30 103 -31 139
-3 23 18 31 19 58 10 59 -21 88 -14 128 29 31 34 43 40 77 40 50 0 82 24 92
69 5 27 13 37 40 46 48 16 71 49 71 101 0 33 5 46 20 54 33 18 51 55 61 125 5
36 19 85 30 108 18 34 21 58 20 133 -1 82 1 94 24 125 50 69 50 66 31 256 -10
97 -21 184 -26 194 -5 9 -22 19 -37 22 -16 3 -39 9 -52 13 -17 5 -22 4 -17 -4
5 -8 0 -12 -12 -12 -17 0 -23 13 -37 78 -25 119 -35 137 -28 56 4 -48 2 -73
-6 -78 -6 -4 -11 -20 -11 -37 l0 -29 -64 0 c-57 0 -65 3 -80 25 -22 34 -74 65
-107 65 -18 0 -41 14 -68 41 -41 41 -42 42 -97 35 -47 -5 -60 -3 -85 15 -24
17 -38 20 -77 15 -26 -4 -77 -8 -114 -9 -61 -2 -70 -5 -100 -35 -27 -25 -42
-32 -75 -32 -48 0 -89 -28 -109 -76 -10 -23 -22 -34 -43 -39 -16 -3 -42 -18
-58 -33 l-28 -27 -415 1 c-390 0 -418 1 -455 20 -29 14 -41 27 -47 52 -11 40
-58 72 -109 72 -26 0 -43 8 -65 31 -40 42 -67 52 -116 39 -34 -10 -46 -8 -85
11 -42 20 -50 21 -87 9 -36 -11 -66 -15 -143 -19 -12 -1 -37 -17 -56 -36 -26
-27 -42 -35 -68 -35 -19 0 -45 -7 -57 -16 -13 -9 -26 -13 -29 -10 -10 9 -32
-27 -33 -51 0 -21 -5 -23 -54 -23 -29 0 -68 3 -86 6 l-32 7 6 61 c4 34 10 79
13 101 3 22 3 37 -1 33 -8 -6 -13 -29 -36 -141 l-12 -59 -41 5 c-23 3 -53 7
-67 9 -19 2 -26 -2 -28 -19 -4 -27 -13 -28 -54 -7 -27 14 -29 18 -17 28 77 57
139 111 139 119 0 5 -7 4 -15 -3 -13 -11 -15 -6 -15 33 0 57 14 94 44 118 13
10 29 32 36 48 10 25 25 35 98 61 309 112 761 213 1017 226 l100 6 178 -156
c98 -86 182 -156 187 -156 5 0 49 33 97 73 48 40 137 113 198 161 l109 88 86
-6 c47 -4 150 -16 229 -27z m274 -457 c8 -9 21 -30 27 -46 l11 -29 31 31 c16
18 41 32 53 32 33 0 65 -31 68 -65 2 -34 18 -32 -158 -20 -119 9 -186 -3 -296
-51 -111 -49 -159 -44 -159 16 0 36 34 70 70 70 16 0 42 -11 59 -26 l31 -26 0
39 c0 44 6 55 37 72 33 17 51 14 80 -15 14 -14 26 -24 27 -22 1 2 10 15 19 31
21 32 74 38 100 9z m-1896 -7 c12 -8 24 -29 28 -45 4 -17 8 -30 10 -30 2 0 19
16 39 36 30 30 41 35 64 30 40 -10 64 -44 60 -83 -5 -38 -2 -39 24 -17 21 20
91 22 113 4 18 -15 20 -56 4 -66 -18 -11 -151 -4 -205 10 -27 7 -77 25 -110
39 -37 16 -89 28 -130 31 -47 4 -59 3 -39 -3 27 -8 25 -9 -20 -10 -72 -1 -95
7 -95 34 0 24 42 65 66 65 7 0 26 -12 43 -26 l31 -26 9 25 c17 45 68 60 108
32z m2410 -1111 c16 -32 16 -38 2 -62 -17 -31 -64 -41 -100 -22 -23 13 -23 16
-3 -57 4 -16 -1 -29 -20 -47 -30 -31 -58 -33 -97 -5 l-29 20 0 -35 c0 -50 -30
-78 -78 -74 -29 2 -41 10 -57 35 -25 40 -31 41 -38 6 -10 -47 -31 -67 -72 -67
-42 0 -72 28 -82 76 l-5 28 -21 -28 c-29 -37 -37 -42 -71 -42 -44 0 -76 35
-76 82 0 44 -3 45 -37 18 -33 -26 -63 -25 -97 1 -17 14 -26 30 -26 50 0 34
-16 33 200 14 303 -27 376 -19 486 54 33 21 82 46 109 56 28 10 54 22 60 27
18 16 36 7 52 -28z m-2866 -30 c14 -7 63 -22 110 -34 46 -12 116 -36 154 -53
62 -28 81 -31 165 -31 126 -1 301 40 429 100 51 24 98 44 102 44 18 0 8 -54
-13 -77 -23 -24 -66 -30 -97 -14 -16 9 -17 5 -13 -43 4 -48 2 -55 -23 -74 -35
-28 -54 -28 -96 1 l-34 23 0 -39 c0 -30 -7 -44 -28 -63 -37 -31 -72 -31 -102
2 -14 15 -25 31 -25 35 0 22 -18 6 -23 -20 -8 -40 -33 -61 -72 -61 -40 0 -75
32 -75 67 0 30 -6 29 -37 -7 -18 -22 -33 -30 -57 -30 -46 0 -66 19 -73 68 -6
46 -9 48 -37 27 -30 -23 -69 -18 -96 10 -22 23 -23 29 -13 68 13 49 12 52 -15
38 -12 -6 -30 -11 -41 -11 -25 0 -61 45 -61 77 0 21 3 23 23 17 12 -3 34 -12
48 -20z m135 -900 c10 -37 14 -90 12 -190 l-3 -139 -33 53 c-40 66 -58 144
-66 292 l-7 115 41 -40 c28 -27 46 -56 56 -91z m2663 -41 c-6 -158 -27 -319
-50 -389 -9 -30 -55 -82 -64 -73 -5 6 13 411 21 459 11 68 27 105 57 138 17
17 33 32 36 32 4 0 3 -75 0 -167z"/>
<path d="M2205 6158 c-10 -196 -10 -193 51 -229 l52 -29 7 132 c11 204 10 208
-51 241 l-52 27 -7 -142z"/>
<path d="M3670 6135 l0 -164 56 -36 c31 -20 58 -34 61 -31 3 2 -3 76 -12 163
l-16 158 -37 38 c-20 20 -40 37 -44 37 -4 0 -8 -74 -8 -165z"/>
<path d="M3189 6258 c-21 -29 -23 -41 -21 -152 3 -140 10 -156 76 -178 l46
-15 -1 71 c0 39 -4 112 -7 163 -6 78 -11 95 -31 117 -14 14 -28 26 -32 26 -4
0 -18 -14 -30 -32z"/>
<path d="M1781 6297 c-19 -21 -22 -38 -27 -158 -3 -74 -10 -149 -16 -167 -5
-17 -32 -57 -60 -88 l-51 -55 29 -30 c33 -35 94 -69 122 -69 18 0 19 15 26
291 3 161 5 293 3 295 -2 2 -13 -7 -26 -19z"/>
<path d="M2320 4523 c-57 -16 -80 -46 -61 -82 6 -10 46 -48 89 -84 44 -36 92
-86 108 -111 16 -25 32 -45 37 -46 13 0 7 125 -9 179 -23 80 -113 158 -164
144z"/>
<path d="M3487 4505 c-64 -44 -113 -180 -93 -260 l7 -27 28 39 c27 37 68 75
165 156 51 42 56 62 26 95 -29 31 -85 29 -133 -3z"/>
<path d="M3738 4361 c-72 -23 -139 -63 -195 -114 -42 -38 -113 -128 -113 -141
0 -4 14 1 32 10 50 26 134 53 248 80 196 46 241 75 211 140 -21 46 -87 55
-183 25z"/>
<path d="M1978 4346 c-24 -24 -31 -52 -18 -77 16 -29 80 -55 221 -90 66 -16
153 -42 194 -58 l75 -29 -18 31 c-35 62 -145 163 -215 197 -83 41 -211 55
-239 26z"/>
<path d="M2893 3029 c-13 -30 -59 -102 -102 -160 -93 -125 -101 -139 -101
-174 0 -37 34 -98 71 -129 43 -36 103 -34 132 6 29 39 43 204 31 377 l-9 135
-22 -55z"/>
<path d="M3006 3027 c-9 -80 -7 -315 4 -381 12 -74 39 -106 90 -106 45 0 74
21 111 78 46 73 41 94 -56 225 -46 62 -97 141 -113 175 l-29 61 -7 -52z"/>
<path d="M3717 2499 c27 -46 96 -104 141 -117 22 -7 69 -12 106 -12 53 0 70 4
86 20 25 25 26 61 1 91 -18 23 -24 24 -129 22 -74 -2 -126 2 -159 12 -65 20
-67 19 -46 -16z"/>
<path d="M2266 2493 c-4 -5 -70 -10 -146 -13 -156 -6 -170 -12 -170 -70 0 -54
19 -65 109 -64 82 0 123 15 174 63 26 23 57 71 57 86 0 7 -15 6 -24 -2z"/>
<path d="M3888 2251 c-20 -4 -48 -15 -62 -24 -16 -11 -46 -17 -79 -17 -30 0
-74 -7 -97 -15 -31 -11 -64 -13 -125 -9 -67 6 -93 3 -133 -11 -46 -17 -55 -17
-94 -4 -64 21 -153 17 -225 -10 l-62 -23 -56 21 c-67 25 -132 27 -206 5 -50
-15 -59 -15 -123 1 -60 16 -77 17 -132 5 -56 -10 -69 -10 -104 4 -22 9 -67 16
-99 16 -44 0 -70 6 -102 25 -121 68 -288 -6 -330 -146 -5 -19 -13 -98 -16
-176 -7 -157 3 -203 55 -265 29 -34 113 -78 151 -78 14 0 44 -19 76 -49 64
-58 119 -75 210 -66 45 5 75 3 109 -9 53 -18 124 -21 178 -6 29 9 46 7 87 -10
66 -26 160 -26 241 -1 58 18 65 18 103 4 63 -24 180 -21 248 6 45 17 62 19 83
11 45 -17 140 -12 190 9 36 16 59 19 114 14 89 -7 126 5 196 67 40 35 69 52
97 56 65 11 140 62 167 116 37 72 48 176 34 311 -17 146 -30 173 -109 215 -66
34 -126 45 -185 33z m127 -50 c48 -22 79 -50 102 -94 15 -27 18 -57 18 -182
-1 -134 -3 -154 -23 -191 -36 -71 -106 -114 -183 -114 -18 0 -35 -12 -58 -40
-56 -70 -155 -100 -226 -68 -21 9 -32 7 -72 -14 -72 -39 -102 -42 -167 -19
l-57 20 -55 -30 c-73 -38 -158 -40 -237 -5 l-53 23 -50 -26 c-70 -36 -168 -36
-239 1 l-51 26 -59 -20 c-66 -22 -105 -19 -169 14 -36 18 -44 19 -97 8 -32 -7
-73 -10 -90 -6 -40 8 -92 47 -116 86 -14 25 -24 30 -54 30 -59 0 -138 47 -166
99 -20 38 -23 59 -23 145 1 201 26 278 109 324 65 37 161 26 201 -22 10 -13
25 -15 75 -10 54 6 70 3 109 -17 46 -22 47 -22 94 -6 64 23 100 21 158 -8 l49
-25 59 26 c74 33 150 30 223 -8 l49 -25 50 28 c75 43 125 46 212 16 l73 -25
42 24 c48 27 122 32 172 10 27 -11 36 -10 84 12 44 20 63 24 109 19 48 -5 59
-3 86 18 63 48 108 55 171 26z"/>
<path d="M3891 2092 c-26 -25 -28 -34 -34 -143 -4 -64 -4 -130 -1 -147 17 -85
116 -109 167 -40 16 22 21 47 25 132 2 57 1 121 -2 141 -15 81 -101 112 -155
57z m106 -14 c20 -19 23 -31 23 -94 0 -82 3 -78 -89 -113 l-54 -20 5 106 c4
95 7 108 28 125 30 24 59 23 87 -4z"/>
<path d="M2043 2090 c-47 -19 -58 -54 -61 -200 -4 -133 -3 -136 22 -163 36
-39 95 -38 129 2 22 26 25 42 31 153 8 130 2 162 -34 198 -21 21 -51 25 -87
10z m78 -29 c23 -18 24 -25 22 -117 -1 -53 -5 -99 -8 -102 -9 -9 -112 27 -125
43 -9 11 -11 34 -7 76 8 70 20 97 50 109 33 13 43 12 68 -9z"/>
<path d="M3671 2044 c-42 -30 -51 -71 -51 -235 l0 -151 34 -34 c38 -38 70 -43
117 -18 50 25 59 64 59 239 l0 157 -29 29 c-34 34 -92 40 -130 13z m110 -23
c22 -17 24 -27 24 -103 l0 -83 -70 -17 c-38 -10 -76 -16 -82 -13 -28 10 -7
179 27 220 17 21 73 18 101 -4z m27 -263 c8 -122 -94 -194 -149 -104 -22 36
-25 99 -6 115 15 12 126 41 142 37 6 -1 11 -23 13 -48z"/>
<path d="M3435 2032 c-55 -34 -58 -44 -67 -203 -10 -169 -2 -216 39 -248 52
-41 143 -17 169 44 19 47 24 331 6 363 -16 28 -69 62 -97 62 -11 0 -33 -8 -50
-18z m85 -17 c16 -8 34 -24 40 -34 15 -28 13 -176 -2 -189 -18 -14 -151 -33
-161 -23 -5 5 -7 52 -5 104 3 100 15 128 63 148 28 11 33 11 65 -6z m45 -319
c-1 -53 -4 -61 -33 -87 -56 -50 -113 -31 -142 46 -17 46 -6 73 38 85 49 13 82
18 112 16 24 -1 25 -4 25 -60z"/>
<path d="M2235 2018 c-32 -28 -45 -102 -45 -267 l0 -113 34 -34 c38 -38 70
-43 115 -19 49 25 61 75 61 246 l0 151 -29 29 c-38 37 -97 40 -136 7z m122
-20 c14 -15 19 -41 22 -110 1 -49 -1 -94 -6 -99 -11 -11 -144 17 -155 33 -13
18 -1 123 17 159 26 50 85 58 122 17z m-3 -238 c31 -11 35 -50 11 -107 -29
-69 -78 -82 -126 -34 -25 26 -29 37 -29 89 0 32 3 62 8 66 8 9 100 0 136 -14z"/>
<path d="M3106 2017 c-66 -38 -76 -69 -76 -245 0 -174 7 -199 66 -227 53 -25
145 -17 180 16 48 45 53 67 56 237 3 159 3 160 -22 187 -55 60 -135 72 -204
32z m177 -36 c32 -31 32 -32 29 -123 -1 -57 -7 -95 -14 -99 -10 -6 -74 -13
-213 -22 l-30 -2 0 90 c0 148 38 200 143 192 44 -3 59 -9 85 -36z m25 -296 c7
-81 -50 -135 -143 -135 -40 0 -52 5 -81 34 -28 28 -34 42 -34 75 0 50 1 50
117 61 137 12 137 12 141 -35z"/>
<path d="M2488 2012 c-50 -30 -58 -64 -58 -240 0 -158 0 -161 26 -191 48 -58
144 -48 178 17 20 39 31 285 16 343 -22 80 -96 113 -162 71z m101 -12 c35 -18
47 -72 43 -194 l-2 -59 -67 7 c-123 13 -115 5 -111 107 3 81 5 90 32 118 31
32 70 40 105 21z m33 -276 c5 -3 8 -26 8 -51 0 -38 -5 -50 -35 -80 -30 -30
-40 -35 -68 -29 -53 10 -77 47 -77 118 l0 61 82 -8 c46 -4 86 -9 90 -11z"/>
<path d="M2762 2013 c-49 -24 -61 -49 -73 -149 -16 -126 -8 -247 17 -282 63
-84 203 -81 261 7 22 32 23 44 23 196 0 149 -2 164 -21 189 -11 14 -34 33 -49
41 -38 20 -117 19 -158 -2z m174 -37 l35 -35 -3 -103 -3 -103 -111 1 c-61 0
-118 4 -127 7 -14 5 -17 22 -17 98 l0 91 39 39 c36 36 43 39 96 39 52 0 60 -3
91 -34z m23 -272 c19 -6 9 -89 -15 -116 -43 -48 -127 -61 -181 -28 -36 22 -49
41 -58 91 -11 59 5 67 132 62 59 -3 114 -6 122 -9z"/>
<path d="M2403 1228 c-25 -12 -28 -21 -13 -47 14 -28 55 -39 188 -51 68 -6
155 -17 193 -25 38 -7 69 -10 69 -6 0 14 -161 103 -220 122 -68 21 -181 25
-217 7z"/>
<path d="M3344 1212 c-71 -25 -210 -99 -202 -107 2 -2 66 7 143 20 77 14 166
25 198 25 58 0 119 18 132 40 4 6 -1 20 -11 31 -28 31 -156 27 -260 -9z"/>
<path d="M3050 1218 c-14 -5 -50 -7 -80 -4 -116 13 -138 -69 -33 -123 54 -28
142 -2 178 53 29 43 -15 93 -65 74z"/>
</g>
</svg>
